<svg xmlns="http://www.w3.org/2000/svg" viewBox="0 0 187.33 238.55"><defs><style>.cls-1{fill:none;}.cls-2{fill:#2367e6;}</style></defs><g id="Calque_2" data-name="Calque 2"><g id="Objects"><path class="cls-1" d="M99.74,198.36a2.28,2.28,0,0,0-1-1,4,4,0,0,0-1.86-.35H94.77v9.48h2a4.27,4.27,0,0,0,1.94-.36,2.23,2.23,0,0,0,1-1,3.39,3.39,0,0,0,.38-1.44c0-.58.07-1.22.07-1.92s0-1.28-.05-1.86A3.72,3.72,0,0,0,99.74,198.36Z"/><polygon class="cls-1" points="1.23 233.28 1.21 233.28 0 236.81 2.44 236.81 1.23 233.28"/><path class="cls-1" d="M104.49,238a1.44,1.44,0,0,0,.52.41,1.57,1.57,0,0,0,.77.18,1.67,1.67,0,0,0,.79-.18,1.45,1.45,0,0,0,.5-.41,1.41,1.41,0,0,0,.34-.68,9.34,9.34,0,0,0,.09-1.62,9.5,9.5,0,0,0-.09-1.62,1.46,1.46,0,0,0-.34-.68,1.57,1.57,0,0,0-.5-.41,1.8,1.8,0,0,0-.79-.17,1.68,1.68,0,0,0-.77.17,1.55,1.55,0,0,0-.52.41,1.28,1.28,0,0,0-.33.68,9.5,9.5,0,0,0-.09,1.62,9.34,9.34,0,0,0,.09,1.62A1.25,1.25,0,0,0,104.49,238Z"/><polygon class="cls-1" points="128.01 201.26 125.98 211.36 130.11 211.36 128.09 201.26 128.01 201.26"/><path class="cls-1" d="M25.25,217.35a3,3,0,0,0,2-.68,2.63,2.63,0,0,0,.82-2.14V199.81a2.63,2.63,0,0,0-.82-2.14,3.18,3.18,0,0,0-3.93,0,2.63,2.63,0,0,0-.83,2.14v14.72a2.63,2.63,0,0,0,.83,2.14A3,3,0,0,0,25.25,217.35Z"/><path class="cls-1" d="M187,234.76a1.22,1.22,0,0,0,.35-.88,1.07,1.07,0,0,0-.42-.92,1.49,1.49,0,0,0-.93-.25h-2v2.45h1.92A1.39,1.39,0,0,0,187,234.76Z"/><path d="M129.51,94.51v27.11H58.84a29.08,29.08,0,0,1-5.4-.49c-.25,0-.5-.11-.75-.15A29.26,29.26,0,0,1,42,116.3,27.52,27.52,0,0,1,30.13,93.84V0A44.5,44.5,0,0,1,53.44,38.77v44.4a16.16,16.16,0,0,0,16.4,15.89H118A16.62,16.62,0,0,0,129.51,94.51Z"/><path d="M157.74,0V52.38a34.6,34.6,0,0,0-22.17-14.15c-.37-.07-.74-.14-1.12-.18A44.5,44.5,0,0,1,157.74,0Z"/><path class="cls-2" d="M157.74,71.25v93.81a44.49,44.49,0,0,1-23.3-38.77V81.89c0-8.75-7.36-15.88-16.4-15.88H69.84a16.61,16.61,0,0,0-11.47,4.54V43.44H129a30,30,0,0,1,5.4.49C147.69,46.39,157.74,57.7,157.74,71.25Z"/><path class="cls-2" d="M53.43,127a44.49,44.49,0,0,1-23.3,38v-52.4a34,34,0,0,0,8.3,8.32,34.75,34.75,0,0,0,13,5.67l.16,0,.74.15C52.67,126.9,53.05,127,53.43,127Z"/></g></g></svg>